<svg width="15" height="14" viewBox="0 0 15 14" fill="none" xmlns="http://www.w3.org/2000/svg">
<path d="M9.89577 13.5809H4.19871C3.08548 13.5797 2.0182 13.1602 1.23106 12.4144C0.443909 11.6686 0.00117773 10.6574 0 9.60265L0 4.20505C0.00125624 3.15039 0.444022 2.13926 1.23116 1.3935C2.0183 0.647733 3.08553 0.228241 4.19871 0.227051L9.89577 0.227051C11.009 0.228167 12.0763 0.647626 12.8635 1.3934C13.6507 2.13917 14.0935 3.15034 14.0948 4.20505V9.60265C14.0936 10.6574 13.6508 11.6687 12.8636 12.4145C12.0764 13.1603 11.0091 13.5798 9.89577 13.5809ZM4.19871 1.5702C3.46139 1.57101 2.75453 1.84888 2.23317 2.34283C1.71181 2.83679 1.41853 3.5065 1.41766 4.20505V9.60265C1.41853 10.3012 1.71182 10.9709 2.23319 11.4648C2.75455 11.9587 3.46142 12.2365 4.19871 12.2372H9.89577C10.633 12.2365 11.3399 11.9587 11.8612 11.4648C12.3825 10.9708 12.6757 10.3012 12.6765 9.60265V4.20505C12.6757 3.50652 12.3825 2.83681 11.8612 2.34285C11.3399 1.84889 10.6331 1.57101 9.89577 1.5702H4.19871ZM7.0465 10.3573C6.32559 10.357 5.62094 10.1543 5.02164 9.77468C4.42235 9.39505 3.95532 8.85558 3.67962 8.22449C3.40391 7.5934 3.33191 6.89902 3.47272 6.22916C3.61353 5.5593 3.96082 4.94404 4.47068 4.46118C4.98055 3.97831 5.63008 3.64953 6.33716 3.51639C7.04424 3.38326 7.77712 3.45176 8.44311 3.71322C9.1091 3.97469 9.67831 4.41739 10.0788 4.98534C10.4792 5.55328 10.6929 6.22098 10.6929 6.90399C10.6919 7.81971 10.3075 8.69766 9.62406 9.34514C8.9406 9.99262 8.01391 10.3567 7.04739 10.3576L7.0465 10.3573ZM7.0465 4.79245C6.60594 4.79245 6.17527 4.91623 5.80896 5.14812C5.44265 5.38002 5.15715 5.70962 4.98855 6.09525C4.81996 6.48087 4.77584 6.90521 4.86179 7.31459C4.94774 7.72397 5.15989 8.10001 5.47141 8.39516C5.78294 8.6903 6.17984 8.8913 6.61193 8.97273C7.04403 9.05416 7.4919 9.01237 7.89893 8.85264C8.30595 8.6929 8.65384 8.42241 8.8986 8.07535C9.14336 7.7283 9.274 7.32027 9.274 6.90287C9.27306 6.34367 9.03816 5.80764 8.62078 5.41226C8.20341 5.01688 7.63761 4.79439 7.04739 4.79358L7.0465 4.79245ZM10.6988 4.30258C10.526 4.30252 10.3571 4.25393 10.2135 4.16293C10.0698 4.07194 9.95792 3.94263 9.89185 3.79137C9.82578 3.64011 9.80854 3.47368 9.84231 3.31313C9.87607 3.15258 9.95933 3.00513 10.0816 2.88941C10.2038 2.7737 10.3595 2.69492 10.5289 2.66303C10.6984 2.63115 10.8741 2.6476 11.0337 2.7103C11.1933 2.773 11.3297 2.87913 11.4256 3.01527C11.5216 3.15142 11.5728 3.31146 11.5727 3.47516C11.5727 3.69466 11.4808 3.90519 11.3171 4.06053C11.1534 4.21587 10.9314 4.30333 10.6997 4.3037L10.6988 4.30258Z" fill="white"/>
</svg>
