<svg width="25" height="16" viewBox="0 0 25 16" fill="none" xmlns="http://www.w3.org/2000/svg">
<path d="M0.0516212 1.47119C0.0258106 1.62605 0 1.78092 0 1.93578V13.4215C0 13.5505 0.0258106 13.6796 0.0516212 13.8087L7.3302 7.12371L0.0516212 1.47119Z" fill="#094FA4"/>
<path d="M24.4686 1.47119L17.2158 7.0979L24.4944 13.7828C24.5202 13.6538 24.5202 13.5247 24.5202 13.3957V1.93578C24.5202 1.78092 24.4944 1.62605 24.4686 1.47119Z" fill="#094FA4"/>
<path d="M13.9894 9.60167C13.0086 10.376 11.5116 10.376 10.5308 9.60167L8.98214 8.41438L1.49707 15.28C1.62612 15.3058 1.75518 15.3316 1.88423 15.3316H22.5843C22.7134 15.3316 22.8424 15.3058 22.9715 15.28L15.538 8.41438L13.9894 9.60167Z" fill="#094FA4"/>
<path d="M12.7245 7.94977L22.9197 0.0259175C22.8165 0.00010691 22.739 0.000106812 22.6358 0.000106812H1.90989C1.80665 0.000106812 1.72922 0.00010691 1.62598 0.0259175L11.8212 7.94977C12.0793 8.15625 12.4406 8.15625 12.7245 7.94977Z" fill="#094FA4"/>
</svg>
