<svg width="19" height="20" viewBox="0 0 19 20" fill="none" xmlns="http://www.w3.org/2000/svg">
<path fill-rule="evenodd" clip-rule="evenodd" d="M7.42179 15.7022C3.32285 15.7022 0 12.3793 0 8.28038C0 4.18144 3.32285 0.858589 7.42179 0.858589C11.5207 0.858589 14.8436 4.18144 14.8436 8.28038C14.8436 9.99546 14.2618 11.5747 13.2849 12.8314L18.2828 17.8293L16.9708 19.1413L11.9729 14.1434C10.7161 15.1204 9.1369 15.7022 7.42179 15.7022ZM12.9882 8.2803C12.9882 11.3545 10.496 13.8466 7.42183 13.8466C4.34762 13.8466 1.85549 11.3545 1.85549 8.2803C1.85549 5.2061 4.34762 2.71396 7.42183 2.71396C10.496 2.71396 12.9882 5.2061 12.9882 8.2803Z" fill="#424B5A"/>
</svg>
