<svg width="19" height="19" viewBox="0 0 19 19" fill="none" xmlns="http://www.w3.org/2000/svg">
<path d="M17.7641 12.8846L14.1103 11.0577C13.9388 10.9721 13.7447 10.9426 13.5555 10.9735C13.3663 11.0043 13.1916 11.0938 13.0561 11.2294L11.5261 12.7595C9.32738 12.406 5.86261 8.94213 5.51001 6.74342L7.04007 5.21337C7.17567 5.0779 7.26522 4.9032 7.29605 4.71402C7.32687 4.52483 7.29739 4.33074 7.2118 4.15923L5.38487 0.505378C5.32506 0.385609 5.23966 0.28045 5.13472 0.197342C5.02977 0.114234 4.90783 0.05521 4.77754 0.0244465C4.64726 -0.00631707 4.5118 -0.00806775 4.38076 0.0193183C4.24972 0.0467043 4.1263 0.102558 4.01924 0.182925L0.365386 2.92332C0.251937 3.0084 0.159857 3.11874 0.0964369 3.24557C0.0330171 3.37241 0 3.51228 0 3.65409C0 12.3959 5.87357 18.2695 14.6154 18.2695C14.7572 18.2695 14.8971 18.2365 15.0239 18.1731C15.1508 18.1097 15.2611 18.0176 15.3462 17.9041L18.0866 14.2503C18.167 14.1432 18.2228 14.0198 18.2502 13.8888C18.2776 13.7577 18.2758 13.6223 18.2451 13.492C18.2143 13.3617 18.1553 13.2397 18.0722 13.1348C17.9891 13.0298 17.8839 12.9444 17.7641 12.8846Z" fill="#094FA4"/>
<path d="M10.5048 1.82705C12.0789 1.82898 13.588 2.45516 14.7011 3.56824C15.8142 4.68133 16.4404 6.19043 16.4423 7.76457C16.4423 8.00683 16.5385 8.23917 16.7098 8.41048C16.8811 8.58179 17.1135 8.67803 17.3558 8.67803C17.598 8.67803 17.8304 8.58179 18.0017 8.41048C18.173 8.23917 18.2692 8.00683 18.2692 7.76457C18.2668 5.70605 17.448 3.73254 15.9924 2.27695C14.5368 0.821353 12.5633 0.00253959 10.5048 0.00012207C10.2625 0.00012207 10.0302 0.0963617 9.85886 0.267669C9.68755 0.438977 9.59131 0.67132 9.59131 0.913586C9.59131 1.15585 9.68755 1.3882 9.85886 1.5595C10.0302 1.73081 10.2625 1.82705 10.5048 1.82705Z" fill="#094FA4"/>
<path d="M10.5048 5.4809C11.1104 5.4809 11.6913 5.7215 12.1196 6.14977C12.5478 6.57804 12.7884 7.1589 12.7884 7.76456C12.7884 8.00683 12.8847 8.23917 13.056 8.41048C13.2273 8.58179 13.4596 8.67803 13.7019 8.67803C13.9442 8.67803 14.1765 8.58179 14.3478 8.41048C14.5191 8.23917 14.6154 8.00683 14.6154 7.76456C14.6154 6.67437 14.1823 5.62882 13.4114 4.85794C12.6405 4.08705 11.595 3.65398 10.5048 3.65398C10.2625 3.65398 10.0302 3.75022 9.85886 3.92152C9.68755 4.09283 9.59131 4.32517 9.59131 4.56744C9.59131 4.80971 9.68755 5.04205 9.85886 5.21336C10.0302 5.38466 10.2625 5.4809 10.5048 5.4809Z" fill="#094FA4"/>
</svg>
